<svg enable-background="new 0 0 85.4 85.4" viewBox="0 0 85.4 85.4" xmlns="http://www.w3.org/2000/svg"><g clip-rule="evenodd" fill-rule="evenodd"><path d="m42.7 85.4c23.6 0 42.7-19.1 42.7-42.7s-19.1-42.7-42.7-42.7-42.7 19.1-42.7 42.7 19.1 42.7 42.7 42.7z" fill="#e24b41"/><path d="m42.7 81.8c21.6 0 39.1-17.5 39.1-39.1s-17.5-39.1-39.1-39.1-39.1 17.5-39.1 39.1 17.5 39.1 39.1 39.1z" fill="#ed6a5f"/><g fill="#460804"><path d="m22.5 57.8 35.3-35.3c1.4-1.4 3.6-1.4 5 0l.1.1c1.4 1.4 1.4 3.6 0 5l-35.3 35.3c-1.4 1.4-3.6 1.4-5 0l-.1-.1c-1.3-1.4-1.3-3.6 0-5z"/><path d="m27.6 22.5 35.3 35.3c1.4 1.4 1.4 3.6 0 5l-.1.1c-1.4 1.4-3.6 1.4-5 0l-35.3-35.3c-1.4-1.4-1.4-3.6 0-5l.1-.1c1.4-1.3 3.6-1.3 5 0z"/></g></g></svg>