<?xml version="1.0" encoding="UTF-8"?>
<svg width="12px" height="12px" viewBox="0 0 12 12" version="1.1" xmlns="http://www.w3.org/2000/svg" xmlns:xlink="http://www.w3.org/1999/xlink">
    <title>close</title>
    <g id="Page-1" stroke="none" stroke-width="1" fill="none" fill-rule="evenodd">
        <g id="close" fill-rule="nonzero">
            <path d="M5.95813953,11.9162791 C9.25116279,11.9162791 11.9162791,9.25116279 11.9162791,5.95813953 C11.9162791,2.66511628 9.25116279,0 5.95813953,0 C2.66511628,0 0,2.66511628 0,5.95813953 C0,9.25116279 2.66511628,11.9162791 5.95813953,11.9162791 Z" id="Path" fill="#e24139"></path>
            <path d="M5.95813953,11.4139535 C8.97209302,11.4139535 11.4139535,8.97209302 11.4139535,5.95813953 C11.4139535,2.94418605 8.97209302,0.502325581 5.95813953,0.502325581 C2.94418605,0.502325581 0.502325581,2.94418605 0.502325581,5.95813953 C0.502325581,8.97209302 2.94418605,11.4139535 5.95813953,11.4139535 Z" id="Path" fill="#FE625B"></path>
            <g id="Group" transform="translate(2.930233, 2.930233)" fill="#4d0000">
                <path d="M0.209302326,5.13488372 L5.13488372,0.209302326 C5.33023256,0.0139534884 5.6372093,0.0139534884 5.83255814,0.209302326 L5.84651163,0.223255814 C6.04186047,0.418604651 6.04186047,0.725581395 5.84651163,0.920930233 L0.920930233,5.84651163 C0.725581395,6.04186047 0.418604651,6.04186047 0.223255814,5.84651163 L0.209302326,5.83255814 C0.0279069767,5.6372093 0.0279069767,5.33023256 0.209302326,5.13488372 Z" id="Path"></path>
                <path d="M0.920930233,0.209302326 L5.84651163,5.13488372 C6.04186047,5.33023256 6.04186047,5.6372093 5.84651163,5.83255814 L5.83255814,5.84651163 C5.6372093,6.04186047 5.33023256,6.04186047 5.13488372,5.84651163 L0.209302326,0.920930233 C0.0139534884,0.725581395 0.0139534884,0.418604651 0.209302326,0.223255814 L0.223255814,0.209302326 C0.418604651,0.0279069767 0.725581395,0.0279069767 0.920930233,0.209302326 Z" id="Path"></path>
            </g>
        </g>
    </g>
</svg>