<?xml version="1.0" encoding="UTF-8"?>
<svg width="12px" height="12px" viewBox="0 0 12 12" version="1.1" xmlns="http://www.w3.org/2000/svg" xmlns:xlink="http://www.w3.org/1999/xlink">
    <title>fullscreen</title>
    <g id="Page-1" stroke="none" stroke-width="1" fill="none" fill-rule="evenodd">
        <g id="fullscreen" fill-rule="nonzero">
            <path d="M5.95813953,11.9162791 C9.25116279,11.9162791 11.9162791,9.25116279 11.9162791,5.95813953 C11.9162791,2.66511628 9.25116279,0 5.95813953,0 C2.66511628,0 0,2.66511628 0,5.95813953 C0,9.25116279 2.66511628,11.9162791 5.95813953,11.9162791 Z" id="Path" fill="#2fad30"></path>
            <path d="M5.95813953,11.4139535 C8.97209302,11.4139535 11.4139535,8.97209302 11.4139535,5.95813953 C11.4139535,2.94418605 8.97209302,0.502325581 5.95813953,0.502325581 C2.94418605,0.502325581 0.502325581,2.94418605 0.502325581,5.95813953 C0.502325581,8.95813953 2.94418605,11.4139535 5.95813953,11.4139535 Z" id="Path" fill="#29cd43"></path>
            <path d="M4.35348837,2.90232558 L8.07906977,2.90232558 C8.58139535,2.90232558 8.98604651,3.30697674 8.98604651,3.80930233 L8.98604651,7.53488372 L4.35348837,2.90232558 Z M7.59069767,9 L3.85116279,9 C3.34883721,9 2.94418605,8.59534884 2.94418605,8.09302326 L2.94418605,4.35348837 L7.59069767,9 Z" id="Shape" fill="#016401"></path>
        </g>
    </g>
</svg>