<svg enable-background="new 0 0 85.4 85.4" viewBox="0 0 85.4 85.4" xmlns="http://www.w3.org/2000/svg"><g clip-rule="evenodd" fill-rule="evenodd"><path d="m42.7 85.4c23.6 0 42.7-19.1 42.7-42.7s-19.1-42.7-42.7-42.7-42.7 19.1-42.7 42.7 19.1 42.7 42.7 42.7z" fill="#2dac2f"/><path d="m42.7 81.8c21.6 0 39.1-17.5 39.1-39.1s-17.5-39.1-39.1-39.1-39.1 17.5-39.1 39.1c0 21.5 17.5 39.1 39.1 39.1z" fill="#61c555"/><path d="m31.2 20.8h26.7c3.6 0 6.5 2.9 6.5 6.5v26.7zm23.2 43.7h-26.8c-3.6 0-6.5-2.9-6.5-6.5v-26.8z" fill="#2a6218"/></g></svg>