<svg enable-background="new 0 0 85.4 85.4" viewBox="0 0 85.4 85.4" xmlns="http://www.w3.org/2000/svg"><g clip-rule="evenodd" fill-rule="evenodd"><path d="m42.7 85.4c23.6 0 42.7-19.1 42.7-42.7s-19.1-42.7-42.7-42.7-42.7 19.1-42.7 42.7 19.1 42.7 42.7 42.7z" fill="#e1a73e"/><path d="m42.7 81.8c21.6 0 39.1-17.5 39.1-39.1s-17.5-39.1-39.1-39.1-39.1 17.5-39.1 39.1 17.5 39.1 39.1 39.1z" fill="#f6be50"/><path d="m17.8 39.1h49.9c1.9 0 3.5 1.6 3.5 3.5v.1c0 1.9-1.6 3.5-3.5 3.5h-49.9c-1.9 0-3.5-1.6-3.5-3.5v-.1c0-1.9 1.5-3.5 3.5-3.5z" fill="#90591d"/></g></svg>