<?xml version="1.0" encoding="UTF-8"?>
<svg width="12px" height="12px" viewBox="0 0 12 12" version="1.1" xmlns="http://www.w3.org/2000/svg" xmlns:xlink="http://www.w3.org/1999/xlink">
    <title>minimize</title>
    <g id="Page-1" stroke="none" stroke-width="1" fill="none" fill-rule="evenodd">
        <g id="minimize" fill-rule="nonzero">
            <path d="M5.95813953,11.9162791 C9.25116279,11.9162791 11.9162791,9.25116279 11.9162791,5.95813953 C11.9162791,2.66511628 9.25116279,0 5.95813953,0 C2.66511628,0 0,2.66511628 0,5.95813953 C0,9.25116279 2.66511628,11.9162791 5.95813953,11.9162791 Z" id="Path" fill="#e3a32b"></path>
            <path d="M5.95813953,11.4139535 C8.97209302,11.4139535 11.4139535,8.97209302 11.4139535,5.95813953 C11.4139535,2.94418605 8.97209302,0.502325581 5.95813953,0.502325581 C2.94418605,0.502325581 0.502325581,2.94418605 0.502325581,5.95813953 C0.502325581,8.97209302 2.94418605,11.4139535 5.95813953,11.4139535 Z" id="Path" fill="#FFBF2C"></path>
            <path d="M2.48372093,5.45581395 L9.44651163,5.45581395 C9.71162791,5.45581395 9.93488372,5.67906977 9.93488372,5.94418605 L9.93488372,5.95813953 C9.93488372,6.22325581 9.71162791,6.44651163 9.44651163,6.44651163 L2.48372093,6.44651163 C2.21860465,6.44651163 1.99534884,6.22325581 1.99534884,5.95813953 L1.99534884,5.94418605 C1.99534884,5.67906977 2.20465116,5.45581395 2.48372093,5.45581395 Z" id="Path" fill="#995700"></path>
        </g>
    </g>
</svg>