<svg fill="none" height="151" viewBox="0 0 360 151" width="360" xmlns="http://www.w3.org/2000/svg"><g fill="#061b31"><g clip-rule="evenodd" fill-rule="evenodd"><path d="m360 78.2001c0-25.6-12.4-45.8-36.1-45.8-23.8 0-38.2 20.2-38.2 45.6 0 30.0999 17 45.2999 41.4 45.2999 11.9 0 20.9-2.7 27.7-6.5v-19.9999c-6.8 3.3999-14.6 5.4999-24.5 5.4999-9.7 0-18.3-3.3998-19.4-15.1998h48.9c0-1.3.2-6.5.2-8.9001zm-49.4-9.5c0-11.2999 6.9-16 13.2-16 6.1 0 12.6 4.7001 12.6 16z"/><path d="m247.1 32.4001c-9.8 0-16.1 4.6-19.6 7.8l-1.3-6.2h-22v116.5999l25-5.3.1-28.3c3.6 2.6 8.9 6.3 17.7 6.3 17.9 0 34.2-14.4 34.2-46.0999-.1-29-16.6-44.8-34.1-44.8zm-6 68.8999c-5.9 0-9.4-2.0999-11.8-4.6998l-.1-37.1001c2.6-2.9 6.2-4.8999 11.9-4.8999 9.1 0 15.4 10.1999 15.4 23.2999 0 13.4-6.2 23.3999-15.4 23.3999z"/><path d="m169.8 26.5 25.1-5.4v-20.299951l-25.1 5.300001z"/></g><path d="m194.9 34.1001h-25.1v87.4999h25.1z"/><path clip-rule="evenodd" d="m142.9 41.5001-1.6-7.4h-21.6v87.4999h25v-59.2999c5.9-7.7 15.9-6.3 19-5.2v-23c-3.2-1.2-14.9-3.4-20.8 7.4z" fill-rule="evenodd"/><path clip-rule="evenodd" d="m92.8999 12.4001-24.4 5.2-.1 80.1c0 14.7999 11.1 25.6999 25.9 25.6999 8.2001 0 14.2001-1.5 17.5001-3.3v-20.2999c-3.2 1.2999-19.0001 5.8999-19.0001-8.9v-35.5h19.0001v-21.2999h-19.0001z" fill-rule="evenodd"/><path clip-rule="evenodd" d="m25.3 59.5001c0-3.9 3.2-5.3999 8.5-5.3999 7.6 0 17.2 2.2999 24.8 6.3999v-23.5c-8.3-3.3-16.5-4.6-24.8-4.6-20.3 0-33.8 10.6-33.8 28.3 0 27.6 38 23.2 38 35.1 0 4.5999-4 6.0999-9.6 6.0999-8.3 0-18.9-3.3998-27.3-7.9998v23.7998c9.3 4 18.7 5.7 27.3 5.7 20.8 0 35.1-10.3 35.1-28.1999-.1-29.8-38.2-24.5-38.2-35.7z" fill-rule="evenodd"/></g></svg>