<svg width="22" height="22" viewBox="0 0 22 22" fill="none" xmlns="http://www.w3.org/2000/svg">
<mask id="path-1-inside-1" fill="white">
<path fill-rule="evenodd" clip-rule="evenodd" d="M4 3C2.89543 3 2 3.89543 2 5V17C2 18.1046 2.89543 19 4 19H18C19.1046 19 20 18.1046 20 17V5C20 3.89543 19.1046 3 18 3H4ZM6.1 6.3C6.1 6.74183 5.74183 7.1 5.3 7.1C4.85817 7.1 4.5 6.74183 4.5 6.3C4.5 5.85817 4.85817 5.5 5.3 5.5C5.74183 5.5 6.1 5.85817 6.1 6.3ZM13.5672 13.0861C13.2345 13.2556 12.8402 13.014 12.8402 12.6406V12.1006C12.8402 11.8244 12.6163 11.6006 12.3402 11.6006H10.2995C10.0233 11.6006 9.79945 11.3767 9.79945 11.1006V10.3406C9.79945 10.0644 10.0233 9.84058 10.2995 9.84058H12.3402C12.6163 9.84058 12.8402 9.61672 12.8402 9.34058V8.80065C12.8402 8.42728 13.2345 8.18563 13.5672 8.35515L17.3349 10.2751C17.6989 10.4606 17.6989 10.9806 17.3349 11.1661L13.5672 13.0861ZM8.43521 11.7051C8.76787 11.5356 9.16223 11.7772 9.16223 12.1506V12.6906C9.16223 12.9667 9.38609 13.1906 9.66223 13.1906H11.703C11.9791 13.1906 12.203 13.4145 12.203 13.6906V14.4506C12.203 14.7267 11.9791 14.9506 11.703 14.9506H9.66223C9.38609 14.9506 9.16223 15.1745 9.16223 15.4506V15.9905C9.16223 16.3639 8.76787 16.6055 8.43521 16.436L4.66751 14.516C4.30354 14.3306 4.30354 13.8105 4.66751 13.6251L8.43521 11.7051ZM7.92441 7.1C8.36624 7.1 8.72441 6.74183 8.72441 6.3C8.72441 5.85817 8.36624 5.5 7.92441 5.5C7.48259 5.5 7.12441 5.85817 7.12441 6.3C7.12441 6.74183 7.48259 7.1 7.92441 7.1ZM11.3752 6.3C11.3752 6.74183 11.017 7.1 10.5752 7.1C10.1334 7.1 9.7752 6.74183 9.7752 6.3C9.7752 5.85817 10.1334 5.5 10.5752 5.5C11.017 5.5 11.3752 5.85817 11.3752 6.3Z"/>
</mask>
<g filter="url(#filter0_i)">
<path fill-rule="evenodd" clip-rule="evenodd" d="M4 3C2.89543 3 2 3.89543 2 5V17C2 18.1046 2.89543 19 4 19H18C19.1046 19 20 18.1046 20 17V5C20 3.89543 19.1046 3 18 3H4ZM6.1 6.3C6.1 6.74183 5.74183 7.1 5.3 7.1C4.85817 7.1 4.5 6.74183 4.5 6.3C4.5 5.85817 4.85817 5.5 5.3 5.5C5.74183 5.5 6.1 5.85817 6.1 6.3ZM13.5672 13.0861C13.2345 13.2556 12.8402 13.014 12.8402 12.6406V12.1006C12.8402 11.8244 12.6163 11.6006 12.3402 11.6006H10.2995C10.0233 11.6006 9.79945 11.3767 9.79945 11.1006V10.3406C9.79945 10.0644 10.0233 9.84058 10.2995 9.84058H12.3402C12.6163 9.84058 12.8402 9.61672 12.8402 9.34058V8.80065C12.8402 8.42728 13.2345 8.18563 13.5672 8.35515L17.3349 10.2751C17.6989 10.4606 17.6989 10.9806 17.3349 11.1661L13.5672 13.0861ZM8.43521 11.7051C8.76787 11.5356 9.16223 11.7772 9.16223 12.1506V12.6906C9.16223 12.9667 9.38609 13.1906 9.66223 13.1906H11.703C11.9791 13.1906 12.203 13.4145 12.203 13.6906V14.4506C12.203 14.7267 11.9791 14.9506 11.703 14.9506H9.66223C9.38609 14.9506 9.16223 15.1745 9.16223 15.4506V15.9905C9.16223 16.3639 8.76787 16.6055 8.43521 16.436L4.66751 14.516C4.30354 14.3306 4.30354 13.8105 4.66751 13.6251L8.43521 11.7051ZM7.92441 7.1C8.36624 7.1 8.72441 6.74183 8.72441 6.3C8.72441 5.85817 8.36624 5.5 7.92441 5.5C7.48259 5.5 7.12441 5.85817 7.12441 6.3C7.12441 6.74183 7.48259 7.1 7.92441 7.1ZM11.3752 6.3C11.3752 6.74183 11.017 7.1 10.5752 7.1C10.1334 7.1 9.7752 6.74183 9.7752 6.3C9.7752 5.85817 10.1334 5.5 10.5752 5.5C11.017 5.5 11.3752 5.85817 11.3752 6.3Z" fill="black"/>
</g>
<path d="M13.5672 13.0861L13.9758 13.888L13.9758 13.888L13.5672 13.0861ZM13.5672 8.35515L13.1586 9.15704L13.1586 9.15704L13.5672 8.35515ZM17.3349 10.2751L17.7435 9.47325L17.7435 9.47325L17.3349 10.2751ZM17.3349 11.1661L17.7435 11.968L17.7435 11.968L17.3349 11.1661ZM8.43521 11.7051L8.84384 12.507L8.84385 12.507L8.43521 11.7051ZM8.43521 16.436L8.84385 15.6341L8.84385 15.6341L8.43521 16.436ZM4.66751 14.516L5.07615 13.7142L5.07615 13.7142L4.66751 14.516ZM4.66751 13.6251L5.07614 14.4269L5.07615 14.4269L4.66751 13.6251ZM2.9 5C2.9 4.39249 3.39249 3.9 4 3.9V2.1C2.39837 2.1 1.1 3.39837 1.1 5H2.9ZM2.9 17V5H1.1V17H2.9ZM4 18.1C3.39249 18.1 2.9 17.6075 2.9 17H1.1C1.1 18.6016 2.39837 19.9 4 19.9V18.1ZM18 18.1H4V19.9H18V18.1ZM19.1 17C19.1 17.6075 18.6075 18.1 18 18.1V19.9C19.6016 19.9 20.9 18.6016 20.9 17H19.1ZM19.1 5V17H20.9V5H19.1ZM18 3.9C18.6075 3.9 19.1 4.39249 19.1 5H20.9C20.9 3.39837 19.6016 2.1 18 2.1V3.9ZM4 3.9H18V2.1H4V3.9ZM5.3 8C6.23888 8 7 7.23888 7 6.3H5.2C5.2 6.24477 5.24477 6.2 5.3 6.2V8ZM3.6 6.3C3.6 7.23888 4.36112 8 5.3 8V6.2C5.35523 6.2 5.4 6.24477 5.4 6.3H3.6ZM5.3 4.6C4.36112 4.6 3.6 5.36112 3.6 6.3H5.4C5.4 6.35523 5.35523 6.4 5.3 6.4V4.6ZM7 6.3C7 5.36112 6.23888 4.6 5.3 4.6V6.4C5.24477 6.4 5.2 6.35523 5.2 6.3H7ZM11.9402 12.6406C11.9402 13.686 13.0444 14.3626 13.9758 13.888L13.1586 12.2842C13.4247 12.1486 13.7402 12.3419 13.7402 12.6406H11.9402ZM11.9402 12.1006V12.6406H13.7402V12.1006H11.9402ZM12.3402 12.5006C12.1193 12.5006 11.9402 12.3215 11.9402 12.1006H13.7402C13.7402 11.3274 13.1134 10.7006 12.3402 10.7006V12.5006ZM10.2995 12.5006H12.3402V10.7006H10.2995V12.5006ZM8.89945 11.1006C8.89945 11.8738 9.52626 12.5006 10.2995 12.5006V10.7006C10.5204 10.7006 10.6995 10.8797 10.6995 11.1006H8.89945ZM8.89945 10.3406V11.1006H10.6995V10.3406H8.89945ZM10.2995 8.94058C9.52626 8.94058 8.89945 9.56738 8.89945 10.3406H10.6995C10.6995 10.5615 10.5204 10.7406 10.2995 10.7406V8.94058ZM12.3402 8.94058H10.2995V10.7406H12.3402V8.94058ZM11.9402 9.34058C11.9402 9.11966 12.1193 8.94058 12.3402 8.94058V10.7406C13.1134 10.7406 13.7402 10.1138 13.7402 9.34058H11.9402ZM11.9402 8.80065V9.34058H13.7402V8.80065H11.9402ZM13.9758 7.55327C13.0444 7.07861 11.9402 7.75524 11.9402 8.80065H13.7402C13.7402 9.09933 13.4247 9.29266 13.1586 9.15704L13.9758 7.55327ZM17.7435 9.47325L13.9758 7.55327L13.1586 9.15704L16.9263 11.077L17.7435 9.47325ZM17.7435 11.968C18.7627 11.4487 18.7627 9.99259 17.7435 9.47325L16.9263 11.077C16.6351 10.9286 16.6351 10.5126 16.9263 10.3642L17.7435 11.968ZM13.9758 13.888L17.7435 11.968L16.9263 10.3642L13.1586 12.2842L13.9758 13.888ZM10.0622 12.1506C10.0622 11.1052 8.95802 10.4285 8.02658 10.9032L8.84385 12.507C8.57772 12.6426 8.26223 12.4493 8.26223 12.1506H10.0622ZM10.0622 12.6906V12.1506H8.26223V12.6906H10.0622ZM9.66223 12.2906C9.88315 12.2906 10.0622 12.4697 10.0622 12.6906H8.26223C8.26223 13.4638 8.88903 14.0906 9.66223 14.0906V12.2906ZM11.703 12.2906H9.66223V14.0906H11.703V12.2906ZM13.103 13.6906C13.103 12.9174 12.4762 12.2906 11.703 12.2906V14.0906C11.4821 14.0906 11.303 13.9115 11.303 13.6906H13.103ZM13.103 14.4506V13.6906H11.303V14.4506H13.103ZM11.703 15.8506C12.4762 15.8506 13.103 15.2238 13.103 14.4506H11.303C11.303 14.2297 11.4821 14.0506 11.703 14.0506V15.8506ZM9.66223 15.8506H11.703V14.0506H9.66223V15.8506ZM10.0622 15.4506C10.0622 15.6715 9.88314 15.8506 9.66223 15.8506V14.0506C8.88903 14.0506 8.26223 14.6774 8.26223 15.4506H10.0622ZM10.0622 15.9905V15.4506H8.26223V15.9905H10.0622ZM8.02658 17.2379C8.95803 17.7126 10.0622 17.0359 10.0622 15.9905H8.26223C8.26223 15.6918 8.57772 15.4985 8.84385 15.6341L8.02658 17.2379ZM4.25888 15.3179L8.02658 17.2379L8.84385 15.6341L5.07615 13.7142L4.25888 15.3179ZM4.25888 12.8232C3.23975 13.3425 3.23975 14.7986 4.25888 15.3179L5.07615 13.7142C5.36733 13.8625 5.36733 14.2786 5.07614 14.4269L4.25888 12.8232ZM8.02658 10.9032L4.25888 12.8232L5.07615 14.4269L8.84384 12.507L8.02658 10.9032ZM7.82441 6.3C7.82441 6.24477 7.86919 6.2 7.92441 6.2V8C8.8633 8 9.62441 7.23888 9.62441 6.3H7.82441ZM7.92441 6.4C7.86919 6.4 7.82441 6.35523 7.82441 6.3H9.62441C9.62441 5.36112 8.8633 4.6 7.92441 4.6V6.4ZM8.02441 6.3C8.02441 6.35523 7.97964 6.4 7.92441 6.4V4.6C6.98553 4.6 6.22441 5.36112 6.22441 6.3H8.02441ZM7.92441 6.2C7.97964 6.2 8.02441 6.24477 8.02441 6.3H6.22441C6.22441 7.23888 6.98553 8 7.92441 8V6.2ZM10.5752 8C11.5141 8 12.2752 7.23888 12.2752 6.3H10.4752C10.4752 6.24477 10.52 6.2 10.5752 6.2V8ZM8.8752 6.3C8.8752 7.23888 9.63631 8 10.5752 8V6.2C10.6304 6.2 10.6752 6.24477 10.6752 6.3H8.8752ZM10.5752 4.6C9.63631 4.6 8.8752 5.36112 8.8752 6.3H10.6752C10.6752 6.35523 10.6304 6.4 10.5752 6.4V4.6ZM12.2752 6.3C12.2752 5.36112 11.5141 4.6 10.5752 4.6V6.4C10.52 6.4 10.4752 6.35523 10.4752 6.3H12.2752Z" fill="black" mask="url(#path-1-inside-1)"/>
<defs>
<filter id="filter0_i" x="2" y="3" width="18" height="16.3718" filterUnits="userSpaceOnUse" color-interpolation-filters="sRGB">
<feFlood flood-opacity="0" result="BackgroundImageFix"/>
<feBlend mode="normal" in="SourceGraphic" in2="BackgroundImageFix" result="shape"/>
<feColorMatrix in="SourceAlpha" type="matrix" values="0 0 0 0 0 0 0 0 0 0 0 0 0 0 0 0 0 0 127 0" result="hardAlpha"/>
<feOffset dy="0.371818"/>
<feGaussianBlur stdDeviation="0.185909"/>
<feComposite in2="hardAlpha" operator="arithmetic" k2="-1" k3="1"/>
<feColorMatrix type="matrix" values="0 0 0 0 1 0 0 0 0 1 0 0 0 0 1 0 0 0 0.2 0"/>
<feBlend mode="normal" in2="shape" result="effect1_innerShadow"/>
</filter>
</defs>
</svg>
